<svg width="1186" height="512" viewBox="0 0 1186 512" fill="none" xmlns="http://www.w3.org/2000/svg">
<g clip-path="url(#clip0_1152_90)">
<path fill-rule="evenodd" clip-rule="evenodd" d="M283.755 194.049H302.4V256.714C311.495 251.104 323.334 248.269 337.236 248.269C350.602 248.269 358.275 245.051 362.724 240.543C367.203 236.005 370.11 228.445 370.11 216.03V194.049H388.755V216.03C388.755 230.969 385.283 244.169 376.024 253.552C366.735 262.964 353.309 266.83 337.236 266.83C323.877 266.83 315.117 269.997 309.903 274.107C304.916 278.037 302.4 283.406 302.4 290.032V317.694H283.755V194.049Z" fill="white"/>
<mask id="mask0_1152_90" style="mask-type:alpha" maskUnits="userSpaceOnUse" x="306" y="256" width="83" height="62">
<path d="M378.696 256.286C368.135 266.687 353.42 270.696 336.745 270.696C323.998 270.696 316.257 273.722 312.001 277.076C308.073 280.172 306.08 284.311 306.08 289.746V317.694H388.51V256.185L378.696 256.286Z" fill="black"/>
</mask>
<g mask="url(#mask0_1152_90)">
<path opacity="0.6" fill-rule="evenodd" clip-rule="evenodd" d="M339.754 288.511C335.288 284.656 330.356 277.676 330.122 269.517L348.766 269.272C348.778 269.661 348.936 271.87 351.968 274.487C354.403 276.589 357.409 278.528 361.182 280.962C362.265 281.661 363.412 282.4 364.626 283.196C374.094 289.402 388.509 299.471 388.509 317.694H369.865C369.865 310.518 364.654 305.438 354.373 298.7C353.52 298.141 352.616 297.559 351.68 296.957C347.754 294.432 343.278 291.553 339.754 288.511Z" fill="white"/>
</g>
</g>
<path d="M502.442 302.5V210.903H538.053C544.273 210.903 549.669 212.046 554.239 214.331C558.81 216.616 562.322 219.854 564.776 224.043C567.273 228.232 568.521 233.205 568.521 238.96V239.087C568.521 245.308 566.935 250.745 563.761 255.4C560.629 260.055 556.313 263.314 550.812 265.176L571.314 302.5H554.874L536.212 267.397C536.043 267.397 535.895 267.397 535.768 267.397C535.683 267.397 535.556 267.397 535.387 267.397H516.661V302.5H502.442ZM516.661 255.654H536.656C542.115 255.654 546.347 254.237 549.352 251.401C552.356 248.524 553.858 244.461 553.858 239.214V239.087C553.858 234.051 552.271 230.094 549.098 227.217C545.966 224.297 541.671 222.837 536.212 222.837H516.661V255.654ZM608.893 303.833C602.376 303.833 596.747 302.437 592.008 299.644C587.311 296.808 583.692 292.809 581.153 287.646C578.657 282.441 577.408 276.326 577.408 269.302V269.238C577.408 262.298 578.678 256.226 581.217 251.021C583.756 245.773 587.332 241.711 591.944 238.833C596.557 235.913 601.974 234.453 608.194 234.453C614.457 234.453 619.832 235.85 624.317 238.643C628.845 241.393 632.337 245.308 634.791 250.386C637.245 255.422 638.473 261.283 638.473 267.969V272.603H584.2V262.891H631.808L625.016 271.968V266.636C625.016 261.938 624.296 258.045 622.857 254.956C621.461 251.825 619.493 249.497 616.954 247.974C614.457 246.45 611.559 245.688 608.258 245.688C604.999 245.688 602.079 246.493 599.498 248.101C596.917 249.709 594.885 252.078 593.404 255.21C591.923 258.299 591.183 262.108 591.183 266.636V271.968C591.183 276.284 591.902 279.987 593.341 283.076C594.822 286.123 596.917 288.472 599.625 290.122C602.333 291.73 605.528 292.534 609.21 292.534C611.918 292.534 614.309 292.132 616.383 291.328C618.456 290.482 620.17 289.382 621.524 288.027C622.921 286.631 623.894 285.086 624.444 283.394L624.635 282.886H637.711L637.584 283.584C637.034 286.208 635.997 288.726 634.474 291.138C632.95 293.55 630.961 295.729 628.507 297.676C626.095 299.58 623.238 301.082 619.938 302.183C616.637 303.283 612.955 303.833 608.893 303.833ZM649.581 302.5V210.903H663.355V302.5H649.581ZM697.125 303.706C692.682 303.706 688.788 302.86 685.445 301.167C682.102 299.474 679.5 297.104 677.638 294.058C675.776 291.011 674.845 287.498 674.845 283.521V283.394C674.845 279.5 675.818 276.157 677.765 273.364C679.711 270.529 682.525 268.286 686.207 266.636C689.931 264.985 694.417 264.012 699.664 263.716L724.928 262.192V271.841L701.505 273.301C697.4 273.555 694.226 274.549 691.983 276.284C689.783 277.977 688.683 280.241 688.683 283.076V283.203C688.683 286.123 689.783 288.429 691.983 290.122C694.226 291.815 697.188 292.661 700.87 292.661C704.086 292.661 706.964 292.005 709.503 290.693C712.084 289.382 714.116 287.583 715.597 285.298C717.078 282.97 717.818 280.368 717.818 277.49V257.622C717.818 253.94 716.676 251.063 714.391 248.989C712.105 246.873 708.826 245.815 704.552 245.815C700.616 245.815 697.442 246.662 695.03 248.354C692.66 250.047 691.179 252.227 690.587 254.893L690.46 255.464H677.511L677.574 254.766C677.913 250.915 679.203 247.466 681.446 244.419C683.689 241.33 686.799 238.896 690.777 237.119C694.755 235.342 699.474 234.453 704.933 234.453C710.392 234.453 715.11 235.363 719.088 237.183C723.066 239.002 726.155 241.562 728.355 244.863C730.556 248.164 731.656 252.036 731.656 256.479V302.5H717.818V291.963H717.564C716.253 294.375 714.56 296.47 712.486 298.247C710.413 299.982 708.064 301.336 705.44 302.31C702.859 303.241 700.087 303.706 697.125 303.706ZM785.992 304.023C779.433 304.023 773.508 302.923 768.219 300.723C762.971 298.522 758.486 295.348 754.762 291.201C751.08 287.054 748.245 282.039 746.256 276.157C744.267 270.275 743.272 263.652 743.272 256.289V256.226C743.272 246.577 745.007 238.262 748.478 231.279C751.948 224.297 756.878 218.901 763.268 215.093C769.658 211.284 777.19 209.38 785.865 209.38C792.975 209.38 799.195 210.649 804.527 213.188C809.859 215.685 814.218 219.113 817.604 223.472C820.989 227.83 823.316 232.782 824.586 238.325L824.84 239.404H810.177L809.923 238.706C808.019 233.416 805.014 229.312 800.909 226.392C796.847 223.472 791.832 222.012 785.865 222.012C780.068 222.012 775.053 223.366 770.821 226.074C766.632 228.783 763.416 232.697 761.173 237.817C758.93 242.896 757.809 249.01 757.809 256.162V256.226C757.809 261.685 758.465 266.593 759.776 270.952C761.088 275.269 762.971 278.95 765.426 281.997C767.923 285.044 770.906 287.371 774.376 288.979C777.846 290.588 781.76 291.392 786.119 291.392C791.07 291.392 795.429 290.418 799.195 288.472C803.004 286.525 805.966 283.817 808.082 280.347C810.24 276.834 811.34 272.772 811.383 268.159V266.636H787.389V255.02H825.475V264.414C825.475 270.592 824.586 276.136 822.809 281.045C821.031 285.954 818.429 290.122 815.001 293.55C811.616 296.978 807.468 299.58 802.56 301.357C797.693 303.135 792.171 304.023 785.992 304.023ZM838.233 302.5V235.723H852.071V302.5H838.233ZM845.152 225.439C842.952 225.439 841.069 224.678 839.503 223.154C837.937 221.589 837.154 219.727 837.154 217.568C837.154 215.326 837.937 213.442 839.503 211.919C841.069 210.396 842.952 209.634 845.152 209.634C847.395 209.634 849.278 210.396 850.802 211.919C852.368 213.442 853.15 215.326 853.15 217.568C853.15 219.727 852.368 221.589 850.802 223.154C849.278 224.678 847.395 225.439 845.152 225.439ZM889.649 303.833C883.048 303.833 878.118 302.352 874.859 299.39C871.643 296.385 870.035 291.54 870.035 284.854V246.641H860.45V235.723H870.035V218.33H884.127V235.723H896.632V246.641H884.127V284.092C884.127 287.477 884.868 289.805 886.349 291.074C887.83 292.301 890.03 292.915 892.95 292.915C893.67 292.915 894.326 292.894 894.918 292.852C895.553 292.767 896.124 292.703 896.632 292.661V303.262C895.828 303.389 894.812 303.516 893.585 303.643C892.358 303.77 891.046 303.833 889.649 303.833Z" fill="white"/>
<defs>
<clipPath id="clip0_1152_90">
<rect width="105" height="123.645" fill="white" transform="translate(284 194.178)"/>
</clipPath>
</defs>
</svg>
