<svg width="1186" height="512" viewBox="0 0 1186 512" fill="none" xmlns="http://www.w3.org/2000/svg">
<g clip-path="url(#clip0_1152_86)">
<path fill-rule="evenodd" clip-rule="evenodd" d="M296.255 194.049H314.899V256.714C323.994 251.104 335.833 248.269 349.736 248.269C363.102 248.269 370.775 245.051 375.224 240.543C379.703 236.005 382.61 228.445 382.61 216.03V194.049H401.255V216.03C401.255 230.969 397.783 244.169 388.524 253.552C379.235 262.964 365.809 266.83 349.736 266.83C336.377 266.83 327.617 269.997 322.403 274.107C317.416 278.037 314.899 283.406 314.899 290.032V317.694H296.255V194.049Z" fill="#1C1C1C"/>
<mask id="mask0_1152_86" style="mask-type:alpha" maskUnits="userSpaceOnUse" x="318" y="256" width="84" height="62">
<path d="M391.196 256.286C380.634 266.687 365.92 270.696 349.245 270.696C336.497 270.696 328.757 273.722 324.501 277.076C320.573 280.172 318.579 284.311 318.579 289.746V317.694H401.009V256.185L391.196 256.286Z" fill="black"/>
</mask>
<g mask="url(#mask0_1152_86)">
<path opacity="0.6" fill-rule="evenodd" clip-rule="evenodd" d="M352.254 288.511C347.788 284.656 342.856 277.676 342.622 269.517L361.266 269.272C361.278 269.661 361.436 271.87 364.468 274.487C366.903 276.589 369.909 278.528 373.682 280.962C374.765 281.661 375.912 282.4 377.126 283.196C386.594 289.402 401.009 299.471 401.009 317.694H382.365C382.365 310.518 377.154 305.438 366.873 298.7C366.02 298.141 365.116 297.559 364.18 296.957C360.254 294.432 355.778 291.553 352.254 288.511Z" fill="#1C1C1C"/>
</g>
</g>
<path d="M489.942 302.5V210.903H525.553C531.773 210.903 537.169 212.046 541.739 214.331C546.31 216.616 549.822 219.854 552.276 224.043C554.773 228.232 556.021 233.205 556.021 238.96V239.087C556.021 245.308 554.435 250.745 551.261 255.4C548.129 260.055 543.813 263.314 538.312 265.176L558.814 302.5H542.374L523.712 267.397C523.543 267.397 523.395 267.397 523.268 267.397C523.183 267.397 523.056 267.397 522.887 267.397H504.161V302.5H489.942ZM504.161 255.654H524.156C529.615 255.654 533.847 254.237 536.852 251.401C539.856 248.524 541.358 244.461 541.358 239.214V239.087C541.358 234.051 539.771 230.094 536.598 227.217C533.466 224.297 529.171 222.837 523.712 222.837H504.161V255.654ZM596.393 303.833C589.876 303.833 584.247 302.437 579.508 299.644C574.811 296.808 571.192 292.809 568.653 287.646C566.157 282.441 564.908 276.326 564.908 269.302V269.238C564.908 262.298 566.178 256.226 568.717 251.021C571.256 245.773 574.832 241.711 579.444 238.833C584.057 235.913 589.474 234.453 595.694 234.453C601.957 234.453 607.332 235.85 611.817 238.643C616.345 241.393 619.837 245.308 622.291 250.386C624.745 255.422 625.973 261.283 625.973 267.969V272.603H571.7V262.891H619.308L612.516 271.968V266.636C612.516 261.938 611.796 258.045 610.357 254.956C608.961 251.825 606.993 249.497 604.454 247.974C601.957 246.45 599.059 245.688 595.758 245.688C592.499 245.688 589.579 246.493 586.998 248.101C584.417 249.709 582.385 252.078 580.904 255.21C579.423 258.299 578.683 262.108 578.683 266.636V271.968C578.683 276.284 579.402 279.987 580.841 283.076C582.322 286.123 584.417 288.472 587.125 290.122C589.833 291.73 593.028 292.534 596.71 292.534C599.418 292.534 601.809 292.132 603.883 291.328C605.956 290.482 607.67 289.382 609.024 288.027C610.421 286.631 611.394 285.086 611.944 283.394L612.135 282.886H625.211L625.084 283.584C624.534 286.208 623.497 288.726 621.974 291.138C620.45 293.55 618.461 295.729 616.007 297.676C613.595 299.58 610.738 301.082 607.438 302.183C604.137 303.283 600.455 303.833 596.393 303.833ZM637.081 302.5V210.903H650.855V302.5H637.081ZM684.625 303.706C680.182 303.706 676.288 302.86 672.945 301.167C669.602 299.474 667 297.104 665.138 294.058C663.276 291.011 662.345 287.498 662.345 283.521V283.394C662.345 279.5 663.318 276.157 665.265 273.364C667.211 270.529 670.025 268.286 673.707 266.636C677.431 264.985 681.917 264.012 687.164 263.716L712.428 262.192V271.841L689.005 273.301C684.9 273.555 681.726 274.549 679.483 276.284C677.283 277.977 676.183 280.241 676.183 283.076V283.203C676.183 286.123 677.283 288.429 679.483 290.122C681.726 291.815 684.688 292.661 688.37 292.661C691.586 292.661 694.464 292.005 697.003 290.693C699.584 289.382 701.616 287.583 703.097 285.298C704.578 282.97 705.318 280.368 705.318 277.49V257.622C705.318 253.94 704.176 251.063 701.891 248.989C699.605 246.873 696.326 245.815 692.052 245.815C688.116 245.815 684.942 246.662 682.53 248.354C680.16 250.047 678.679 252.227 678.087 254.893L677.96 255.464H665.011L665.074 254.766C665.413 250.915 666.703 247.466 668.946 244.419C671.189 241.33 674.299 238.896 678.277 237.119C682.255 235.342 686.974 234.453 692.433 234.453C697.892 234.453 702.61 235.363 706.588 237.183C710.566 239.002 713.655 241.562 715.855 244.863C718.056 248.164 719.156 252.036 719.156 256.479V302.5H705.318V291.963H705.064C703.753 294.375 702.06 296.47 699.986 298.247C697.913 299.982 695.564 301.336 692.94 302.31C690.359 303.241 687.587 303.706 684.625 303.706ZM773.492 304.023C766.933 304.023 761.008 302.923 755.719 300.723C750.471 298.522 745.986 295.348 742.262 291.201C738.58 287.054 735.745 282.039 733.756 276.157C731.767 270.275 730.772 263.652 730.772 256.289V256.226C730.772 246.577 732.507 238.262 735.978 231.279C739.448 224.297 744.378 218.901 750.768 215.093C757.158 211.284 764.69 209.38 773.365 209.38C780.475 209.38 786.695 210.649 792.027 213.188C797.359 215.685 801.718 219.113 805.104 223.472C808.489 227.83 810.816 232.782 812.086 238.325L812.34 239.404H797.677L797.423 238.706C795.519 233.416 792.514 229.312 788.409 226.392C784.347 223.472 779.332 222.012 773.365 222.012C767.568 222.012 762.553 223.366 758.321 226.074C754.132 228.783 750.916 232.697 748.673 237.817C746.43 242.896 745.309 249.01 745.309 256.162V256.226C745.309 261.685 745.965 266.593 747.276 270.952C748.588 275.269 750.471 278.95 752.926 281.997C755.423 285.044 758.406 287.371 761.876 288.979C765.346 290.588 769.26 291.392 773.619 291.392C778.57 291.392 782.929 290.418 786.695 288.472C790.504 286.525 793.466 283.817 795.582 280.347C797.74 276.834 798.84 272.772 798.883 268.159V266.636H774.889V255.02H812.975V264.414C812.975 270.592 812.086 276.136 810.309 281.045C808.531 285.954 805.929 290.122 802.501 293.55C799.116 296.978 794.968 299.58 790.06 301.357C785.193 303.135 779.671 304.023 773.492 304.023ZM825.733 302.5V235.723H839.571V302.5H825.733ZM832.652 225.439C830.452 225.439 828.569 224.678 827.003 223.154C825.437 221.589 824.654 219.727 824.654 217.568C824.654 215.326 825.437 213.442 827.003 211.919C828.569 210.396 830.452 209.634 832.652 209.634C834.895 209.634 836.778 210.396 838.302 211.919C839.868 213.442 840.65 215.326 840.65 217.568C840.65 219.727 839.868 221.589 838.302 223.154C836.778 224.678 834.895 225.439 832.652 225.439ZM877.149 303.833C870.548 303.833 865.618 302.352 862.359 299.39C859.143 296.385 857.535 291.54 857.535 284.854V246.641H847.95V235.723H857.535V218.33H871.627V235.723H884.132V246.641H871.627V284.092C871.627 287.477 872.368 289.805 873.849 291.074C875.33 292.301 877.53 292.915 880.45 292.915C881.17 292.915 881.826 292.894 882.418 292.852C883.053 292.767 883.624 292.703 884.132 292.661V303.262C883.328 303.389 882.312 303.516 881.085 303.643C879.858 303.77 878.546 303.833 877.149 303.833Z" fill="#1C1C1C"/>
<defs>
<clipPath id="clip0_1152_86">
<rect width="105" height="123.645" fill="white" transform="translate(296.5 194.178)"/>
</clipPath>
</defs>
</svg>
