<svg width="1186" height="512" viewBox="0 0 1186 512" fill="none" xmlns="http://www.w3.org/2000/svg">
<g clip-path="url(#clip0_1148_1190)">
<path fill-rule="evenodd" clip-rule="evenodd" d="M365.255 194.049H383.9V256.713C392.995 251.104 404.834 248.268 418.736 248.268C432.102 248.268 439.775 245.051 444.224 240.543C448.703 236.004 451.61 228.444 451.61 216.03V194.049H470.255V216.03C470.255 230.969 466.783 244.169 457.524 253.551C448.235 262.964 434.809 266.83 418.736 266.83C405.377 266.83 396.617 269.997 391.403 274.106C386.416 278.037 383.9 283.406 383.9 290.032V317.694H365.255V194.049Z" fill="white"/>
<mask id="mask0_1148_1190" style="mask-type:alpha" maskUnits="userSpaceOnUse" x="387" y="256" width="84" height="62">
<path d="M460.196 256.286C449.635 266.687 434.92 270.696 418.245 270.696C405.498 270.696 397.757 273.722 393.501 277.075C389.573 280.172 387.58 284.31 387.58 289.746V317.694H470.01V256.185L460.196 256.286Z" fill="black"/>
</mask>
<g mask="url(#mask0_1148_1190)">
<path opacity="0.6" fill-rule="evenodd" clip-rule="evenodd" d="M421.254 288.511C416.788 284.656 411.856 277.676 411.622 269.516L430.266 269.272C430.278 269.661 430.436 271.87 433.468 274.487C435.903 276.589 438.909 278.528 442.682 280.962C443.765 281.661 444.912 282.4 446.126 283.196C455.594 289.402 470.009 299.471 470.009 317.694H451.365C451.365 310.518 446.154 305.438 435.873 298.699C435.02 298.14 434.116 297.559 433.18 296.957C429.254 294.432 424.778 291.553 421.254 288.511Z" fill="white"/>
</g>
</g>
<path d="M583.942 302.5V210.903H619.553C625.773 210.903 631.169 212.046 635.739 214.331C640.31 216.616 643.822 219.854 646.276 224.043C648.773 228.232 650.021 233.205 650.021 238.96V239.087C650.021 245.308 648.435 250.745 645.261 255.4C642.129 260.055 637.813 263.314 632.312 265.176L652.814 302.5H636.374L617.712 267.397C617.543 267.397 617.395 267.397 617.268 267.397C617.183 267.397 617.056 267.397 616.887 267.397H598.161V302.5H583.942ZM598.161 255.654H618.156C623.615 255.654 627.847 254.237 630.852 251.401C633.856 248.524 635.358 244.461 635.358 239.214V239.087C635.358 234.051 633.771 230.094 630.598 227.217C627.466 224.297 623.171 222.837 617.712 222.837H598.161V255.654ZM690.393 303.833C683.876 303.833 678.247 302.437 673.508 299.644C668.811 296.808 665.192 292.809 662.653 287.646C660.157 282.441 658.908 276.326 658.908 269.302V269.238C658.908 262.298 660.178 256.226 662.717 251.021C665.256 245.773 668.832 241.711 673.444 238.833C678.057 235.913 683.474 234.453 689.694 234.453C695.957 234.453 701.332 235.85 705.817 238.643C710.345 241.393 713.837 245.308 716.291 250.386C718.745 255.422 719.973 261.283 719.973 267.969V272.603H665.7V262.891H713.308L706.516 271.968V266.636C706.516 261.938 705.796 258.045 704.357 254.956C702.961 251.825 700.993 249.497 698.454 247.974C695.957 246.45 693.059 245.688 689.758 245.688C686.499 245.688 683.579 246.493 680.998 248.101C678.417 249.709 676.385 252.078 674.904 255.21C673.423 258.299 672.683 262.108 672.683 266.636V271.968C672.683 276.284 673.402 279.987 674.841 283.076C676.322 286.123 678.417 288.472 681.125 290.122C683.833 291.73 687.028 292.534 690.71 292.534C693.418 292.534 695.809 292.132 697.883 291.328C699.956 290.482 701.67 289.382 703.024 288.027C704.421 286.631 705.394 285.086 705.944 283.394L706.135 282.886H719.211L719.084 283.584C718.534 286.208 717.497 288.726 715.974 291.138C714.45 293.55 712.461 295.729 710.007 297.676C707.595 299.58 704.738 301.082 701.438 302.183C698.137 303.283 694.455 303.833 690.393 303.833ZM731.081 302.5V210.903H744.855V302.5H731.081ZM778.625 303.706C774.182 303.706 770.288 302.86 766.945 301.167C763.602 299.474 761 297.104 759.138 294.058C757.276 291.011 756.345 287.498 756.345 283.521V283.394C756.345 279.5 757.318 276.157 759.265 273.364C761.211 270.529 764.025 268.286 767.707 266.636C771.431 264.985 775.917 264.012 781.164 263.716L806.428 262.192V271.841L783.005 273.301C778.9 273.555 775.726 274.549 773.483 276.284C771.283 277.977 770.183 280.241 770.183 283.076V283.203C770.183 286.123 771.283 288.429 773.483 290.122C775.726 291.815 778.688 292.661 782.37 292.661C785.586 292.661 788.464 292.005 791.003 290.693C793.584 289.382 795.616 287.583 797.097 285.298C798.578 282.97 799.318 280.368 799.318 277.49V257.622C799.318 253.94 798.176 251.063 795.891 248.989C793.605 246.873 790.326 245.815 786.052 245.815C782.116 245.815 778.942 246.662 776.53 248.354C774.16 250.047 772.679 252.227 772.087 254.893L771.96 255.464H759.011L759.074 254.766C759.413 250.915 760.703 247.466 762.946 244.419C765.189 241.33 768.299 238.896 772.277 237.119C776.255 235.342 780.974 234.453 786.433 234.453C791.892 234.453 796.61 235.363 800.588 237.183C804.566 239.002 807.655 241.562 809.855 244.863C812.056 248.164 813.156 252.036 813.156 256.479V302.5H799.318V291.963H799.064C797.753 294.375 796.06 296.47 793.986 298.247C791.913 299.982 789.564 301.336 786.94 302.31C784.359 303.241 781.587 303.706 778.625 303.706Z" fill="white"/>
<defs>
<clipPath id="clip0_1148_1190">
<rect width="105" height="123.645" fill="white" transform="translate(365.5 194.177)"/>
</clipPath>
</defs>
</svg>
