<svg width="1186" height="512" viewBox="0 0 1186 512" fill="none" xmlns="http://www.w3.org/2000/svg">
<g clip-path="url(#clip0_1148_1190)">
<path fill-rule="evenodd" clip-rule="evenodd" d="M377.755 194.049H396.4V256.713C405.495 251.104 417.334 248.268 431.236 248.268C444.602 248.268 452.275 245.051 456.724 240.543C461.203 236.004 464.11 228.444 464.11 216.03V194.049H482.755V216.03C482.755 230.969 479.283 244.169 470.024 253.551C460.735 262.964 447.309 266.83 431.236 266.83C417.877 266.83 409.117 269.997 403.903 274.106C398.916 278.037 396.4 283.406 396.4 290.032V317.694H377.755V194.049Z" fill="white"/>
<mask id="mask0_1148_1190" style="mask-type:alpha" maskUnits="userSpaceOnUse" x="400" y="256" width="83" height="62">
<path d="M472.696 256.286C462.135 266.687 447.42 270.696 430.745 270.696C417.998 270.696 410.257 273.722 406.001 277.075C402.073 280.172 400.08 284.31 400.08 289.746V317.694H482.509V256.185L472.696 256.286Z" fill="black"/>
</mask>
<g mask="url(#mask0_1148_1190)">
<path opacity="0.6" fill-rule="evenodd" clip-rule="evenodd" d="M433.754 288.511C429.288 284.656 424.356 277.676 424.122 269.516L442.766 269.272C442.778 269.661 442.936 271.87 445.968 274.487C448.403 276.589 451.409 278.528 455.182 280.962C456.265 281.661 457.412 282.4 458.626 283.196C468.094 289.402 482.509 299.471 482.509 317.694H463.865C463.865 310.518 458.654 305.438 448.373 298.699C447.52 298.14 446.616 297.559 445.68 296.957C441.754 294.432 437.278 291.553 433.754 288.511Z" fill="white"/>
</g>
</g>
<path d="M571.442 302.5V210.903H607.053C613.273 210.903 618.669 212.046 623.239 214.331C627.81 216.616 631.322 219.854 633.776 224.043C636.273 228.232 637.521 233.205 637.521 238.96V239.087C637.521 245.308 635.935 250.745 632.761 255.4C629.629 260.055 625.313 263.314 619.812 265.176L640.314 302.5H623.874L605.212 267.397C605.043 267.397 604.895 267.397 604.768 267.397C604.683 267.397 604.556 267.397 604.387 267.397H585.661V302.5H571.442ZM585.661 255.654H605.656C611.115 255.654 615.347 254.237 618.352 251.401C621.356 248.524 622.858 244.461 622.858 239.214V239.087C622.858 234.051 621.271 230.094 618.098 227.217C614.966 224.297 610.671 222.837 605.212 222.837H585.661V255.654ZM677.893 303.833C671.376 303.833 665.747 302.437 661.008 299.644C656.311 296.808 652.692 292.809 650.153 287.646C647.657 282.441 646.408 276.326 646.408 269.302V269.238C646.408 262.298 647.678 256.226 650.217 251.021C652.756 245.773 656.332 241.711 660.944 238.833C665.557 235.913 670.974 234.453 677.194 234.453C683.457 234.453 688.832 235.85 693.317 238.643C697.845 241.393 701.337 245.308 703.791 250.386C706.245 255.422 707.473 261.283 707.473 267.969V272.603H653.2V262.891H700.808L694.016 271.968V266.636C694.016 261.938 693.296 258.045 691.857 254.956C690.461 251.825 688.493 249.497 685.954 247.974C683.457 246.45 680.559 245.688 677.258 245.688C673.999 245.688 671.079 246.493 668.498 248.101C665.917 249.709 663.885 252.078 662.404 255.21C660.923 258.299 660.183 262.108 660.183 266.636V271.968C660.183 276.284 660.902 279.987 662.341 283.076C663.822 286.123 665.917 288.472 668.625 290.122C671.333 291.73 674.528 292.534 678.21 292.534C680.918 292.534 683.309 292.132 685.383 291.328C687.456 290.482 689.17 289.382 690.524 288.027C691.921 286.631 692.894 285.086 693.444 283.394L693.635 282.886H706.711L706.584 283.584C706.034 286.208 704.997 288.726 703.474 291.138C701.95 293.55 699.961 295.729 697.507 297.676C695.095 299.58 692.238 301.082 688.938 302.183C685.637 303.283 681.955 303.833 677.893 303.833ZM718.581 302.5V210.903H732.355V302.5H718.581ZM766.125 303.706C761.682 303.706 757.788 302.86 754.445 301.167C751.102 299.474 748.5 297.104 746.638 294.058C744.776 291.011 743.845 287.498 743.845 283.521V283.394C743.845 279.5 744.818 276.157 746.765 273.364C748.711 270.529 751.525 268.286 755.207 266.636C758.931 264.985 763.417 264.012 768.664 263.716L793.928 262.192V271.841L770.505 273.301C766.4 273.555 763.226 274.549 760.983 276.284C758.783 277.977 757.683 280.241 757.683 283.076V283.203C757.683 286.123 758.783 288.429 760.983 290.122C763.226 291.815 766.188 292.661 769.87 292.661C773.086 292.661 775.964 292.005 778.503 290.693C781.084 289.382 783.116 287.583 784.597 285.298C786.078 282.97 786.818 280.368 786.818 277.49V257.622C786.818 253.94 785.676 251.063 783.391 248.989C781.105 246.873 777.826 245.815 773.552 245.815C769.616 245.815 766.442 246.662 764.03 248.354C761.66 250.047 760.179 252.227 759.587 254.893L759.46 255.464H746.511L746.574 254.766C746.913 250.915 748.203 247.466 750.446 244.419C752.689 241.33 755.799 238.896 759.777 237.119C763.755 235.342 768.474 234.453 773.933 234.453C779.392 234.453 784.11 235.363 788.088 237.183C792.066 239.002 795.155 241.562 797.355 244.863C799.556 248.164 800.656 252.036 800.656 256.479V302.5H786.818V291.963H786.564C785.253 294.375 783.56 296.47 781.486 298.247C779.413 299.982 777.064 301.336 774.44 302.31C771.859 303.241 769.087 303.706 766.125 303.706Z" fill="white"/>
<defs>
<clipPath id="clip0_1148_1190">
<rect width="105" height="123.645" fill="white" transform="translate(378 194.177)"/>
</clipPath>
</defs>
</svg>
