<svg width="1186" height="512" viewBox="0 0 1186 512" fill="none" xmlns="http://www.w3.org/2000/svg">
<rect width="1186" height="512" fill="white"/>
<g clip-path="url(#clip0_1148_1732)">
<path fill-rule="evenodd" clip-rule="evenodd" d="M385.648 194.049H404.293V256.714C413.387 251.104 425.226 248.269 439.129 248.269C452.495 248.269 460.168 245.051 464.617 240.543C469.096 236.005 472.003 228.445 472.003 216.03V194.049H490.648V216.03C490.648 230.969 487.176 244.169 477.917 253.552C468.628 262.964 455.202 266.83 439.129 266.83C425.77 266.83 417.01 269.997 411.796 274.107C406.809 278.037 404.293 283.406 404.293 290.032V317.694H385.648V194.049Z" fill="#1C1C1C"/>
<mask id="mask0_1148_1732" style="mask-type:alpha" maskUnits="userSpaceOnUse" x="407" y="256" width="84" height="62">
<path d="M480.589 256.286C470.027 266.687 455.313 270.696 438.638 270.696C425.89 270.696 418.15 273.722 413.894 277.076C409.966 280.172 407.972 284.311 407.972 289.746V317.694H490.402V256.185L480.589 256.286Z" fill="black"/>
</mask>
<g mask="url(#mask0_1148_1732)">
<path opacity="0.6" fill-rule="evenodd" clip-rule="evenodd" d="M441.647 288.511C437.181 284.656 432.249 277.676 432.015 269.517L450.66 269.272C450.671 269.661 450.829 271.87 453.861 274.487C456.296 276.589 459.302 278.528 463.075 280.962C464.158 281.661 465.305 282.4 466.519 283.196C475.987 289.402 490.403 299.471 490.403 317.694H471.758C471.758 310.518 466.547 305.438 456.266 298.7C455.413 298.141 454.509 297.559 453.573 296.957C449.648 294.432 445.171 291.553 441.647 288.511Z" fill="#1C1C1C"/>
</g>
</g>
<path d="M765.576 302.338C761.132 302.338 757.239 301.492 753.896 299.799C750.553 298.106 747.95 295.736 746.088 292.689C744.226 289.643 743.295 286.13 743.295 282.152V282.025C743.295 278.132 744.269 274.789 746.215 271.996C748.162 269.161 750.976 266.918 754.658 265.268C758.382 263.617 762.867 262.644 768.115 262.348L793.378 260.824V270.473L769.956 271.933C765.851 272.187 762.677 273.181 760.434 274.916C758.234 276.609 757.133 278.873 757.133 281.708V281.835C757.133 284.755 758.234 287.061 760.434 288.754C762.677 290.447 765.639 291.293 769.321 291.293C772.537 291.293 775.415 290.637 777.954 289.325C780.535 288.013 782.566 286.215 784.047 283.93C785.528 281.602 786.269 279 786.269 276.122V256.254C786.269 252.572 785.126 249.695 782.841 247.621C780.556 245.505 777.277 244.447 773.002 244.447C769.067 244.447 765.893 245.294 763.481 246.986C761.111 248.679 759.63 250.858 759.038 253.524L758.911 254.096H745.961L746.025 253.397C746.363 249.547 747.654 246.098 749.897 243.051C752.14 239.962 755.25 237.528 759.228 235.751C763.206 233.974 767.924 233.085 773.383 233.085C778.842 233.085 783.561 233.995 787.539 235.814C791.516 237.634 794.606 240.194 796.806 243.495C799.007 246.796 800.107 250.668 800.107 255.111V301.132H786.269V290.595H786.015C784.703 293.007 783.011 295.102 780.937 296.879C778.863 298.614 776.515 299.968 773.891 300.941C771.31 301.872 768.538 302.338 765.576 302.338Z" fill="#1C1C1C"/>
<path d="M718.032 301.132V209.535H731.806V301.132H718.032Z" fill="#1C1C1C"/>
<path d="M677.343 302.465C670.826 302.465 665.198 301.068 660.458 298.275C655.761 295.44 652.143 291.441 649.604 286.278C647.107 281.073 645.859 274.958 645.859 267.934V267.87C645.859 260.93 647.128 254.857 649.667 249.652C652.207 244.405 655.782 240.342 660.395 237.465C665.008 234.545 670.424 233.085 676.645 233.085C682.908 233.085 688.282 234.481 692.768 237.274C697.296 240.025 700.787 243.939 703.242 249.018C705.696 254.053 706.923 259.914 706.923 266.601V271.234H652.651V261.522H700.258L693.466 270.6V265.268C693.466 260.57 692.747 256.677 691.308 253.588C689.912 250.456 687.944 248.129 685.405 246.605C682.908 245.082 680.009 244.32 676.708 244.32C673.45 244.32 670.53 245.124 667.949 246.732C665.367 248.34 663.336 250.71 661.855 253.842C660.374 256.931 659.633 260.74 659.633 265.268V270.6C659.633 274.916 660.353 278.619 661.792 281.708C663.273 284.755 665.367 287.104 668.076 288.754C670.784 290.362 673.979 291.166 677.661 291.166C680.369 291.166 682.76 290.764 684.833 289.96C686.907 289.114 688.621 288.013 689.975 286.659C691.372 285.263 692.345 283.718 692.895 282.025L693.085 281.518H706.162L706.035 282.216C705.485 284.84 704.448 287.357 702.924 289.77C701.401 292.182 699.412 294.361 696.958 296.308C694.545 298.212 691.689 299.714 688.388 300.814C685.087 301.915 681.406 302.465 677.343 302.465Z" fill="#1C1C1C"/>
<path d="M570.893 301.132V209.535H606.503C612.724 209.535 618.12 210.678 622.69 212.963C627.26 215.248 630.773 218.485 633.227 222.675C635.724 226.864 636.972 231.837 636.972 237.592V237.719C636.972 243.939 635.385 249.377 632.211 254.032C629.08 258.687 624.764 261.946 619.262 263.808L639.765 301.132H623.325L604.663 266.029C604.493 266.029 604.345 266.029 604.218 266.029C604.134 266.029 604.007 266.029 603.837 266.029H585.112V301.132H570.893ZM585.112 254.286H605.107C610.566 254.286 614.798 252.868 617.802 250.033C620.807 247.156 622.309 243.093 622.309 237.846V237.719C622.309 232.683 620.722 228.726 617.548 225.849C614.417 222.929 610.122 221.469 604.663 221.469H585.112V254.286Z" fill="#1C1C1C"/>
<defs>
<clipPath id="clip0_1148_1732">
<rect width="105" height="123.645" fill="white" transform="translate(385.893 194.178)"/>
</clipPath>
</defs>
</svg>
