<svg width="1186" height="512" viewBox="0 0 1186 512" fill="none" xmlns="http://www.w3.org/2000/svg">
<rect width="1186" height="512" fill="black"/>
<g clip-path="url(#clip0_1148_1740)">
<path fill-rule="evenodd" clip-rule="evenodd" d="M381.755 194.049H400.4V256.714C409.495 251.104 421.334 248.269 435.236 248.269C448.602 248.269 456.275 245.051 460.724 240.543C465.203 236.005 468.11 228.445 468.11 216.03V194.049H486.755V216.03C486.755 230.969 483.283 244.169 474.024 253.552C464.735 262.964 451.309 266.83 435.236 266.83C421.877 266.83 413.117 269.997 407.903 274.107C402.916 278.037 400.4 283.406 400.4 290.032V317.694H381.755V194.049Z" fill="white"/>
<mask id="mask0_1148_1740" style="mask-type:alpha" maskUnits="userSpaceOnUse" x="404" y="256" width="83" height="62">
<path d="M476.696 256.286C466.135 266.687 451.42 270.696 434.745 270.696C421.998 270.696 414.257 273.722 410.001 277.076C406.073 280.172 404.08 284.311 404.08 289.746V317.694H486.509V256.185L476.696 256.286Z" fill="black"/>
</mask>
<g mask="url(#mask0_1148_1740)">
<path opacity="0.6" fill-rule="evenodd" clip-rule="evenodd" d="M437.754 288.511C433.288 284.656 428.356 277.676 428.122 269.517L446.766 269.272C446.778 269.661 446.936 271.87 449.968 274.487C452.403 276.589 455.409 278.528 459.182 280.962C460.265 281.661 461.412 282.4 462.626 283.196C472.094 289.402 486.509 299.471 486.509 317.694H467.865C467.865 310.518 462.654 305.438 452.373 298.7C451.52 298.141 450.616 297.559 449.68 296.957C445.754 294.432 441.278 291.553 437.754 288.511Z" fill="white"/>
</g>
</g>
<path d="M575.887 302.5V210.903H610.228C616.11 210.903 621.23 212.046 625.589 214.331C629.99 216.574 633.396 219.748 635.809 223.853C638.221 227.915 639.427 232.697 639.427 238.198V238.325C639.427 244.673 637.776 250.174 634.476 254.829C631.217 259.442 626.731 262.658 621.019 264.478L642.22 302.5H628.826L609.212 266.255C609.085 266.255 608.958 266.255 608.831 266.255C608.746 266.255 608.641 266.255 608.514 266.255H587.312V302.5H575.887ZM587.312 256.162H609.212C615.094 256.162 619.622 254.639 622.796 251.592C626.012 248.545 627.62 244.207 627.62 238.579V238.452C627.62 232.993 625.927 228.74 622.542 225.693C619.199 222.604 614.586 221.06 608.704 221.06H587.312V256.162ZM679.29 303.77C672.985 303.77 667.547 302.373 662.977 299.58C658.449 296.787 654.957 292.852 652.503 287.773C650.091 282.653 648.885 276.644 648.885 269.746V269.683C648.885 262.869 650.112 256.882 652.566 251.719C655.021 246.514 658.47 242.472 662.913 239.595C667.356 236.675 672.583 235.215 678.592 235.215C684.601 235.215 689.764 236.611 694.08 239.404C698.439 242.155 701.782 246.027 704.109 251.021C706.437 256.014 707.601 261.812 707.601 268.413V272.476H654.407V263.843H702.142L696.556 271.841V267.588C696.556 262.467 695.773 258.236 694.207 254.893C692.684 251.549 690.568 249.074 687.859 247.466C685.151 245.815 682.041 244.99 678.528 244.99C675.016 244.99 671.863 245.858 669.07 247.593C666.277 249.285 664.077 251.825 662.469 255.21C660.861 258.553 660.057 262.679 660.057 267.588V271.841C660.057 276.496 660.84 280.474 662.405 283.774C664.013 287.075 666.277 289.614 669.197 291.392C672.117 293.127 675.566 293.994 679.544 293.994C682.337 293.994 684.834 293.571 687.034 292.725C689.235 291.878 691.076 290.715 692.557 289.233C694.038 287.752 695.096 286.06 695.73 284.155L695.921 283.584H706.775L706.648 284.219C706.098 286.927 705.04 289.466 703.475 291.836C701.951 294.206 699.983 296.3 697.571 298.12C695.159 299.897 692.409 301.294 689.319 302.31C686.23 303.283 682.887 303.77 679.29 303.77ZM719.344 302.5V210.903H730.389V302.5H719.344ZM764.603 303.77C760.244 303.77 756.414 302.944 753.113 301.294C749.812 299.644 747.231 297.316 745.369 294.312C743.549 291.307 742.64 287.816 742.64 283.838V283.711C742.64 279.945 743.571 276.686 745.433 273.936C747.337 271.185 750.066 269.006 753.621 267.397C757.218 265.789 761.535 264.837 766.57 264.541L791.009 263.145V271.714L767.84 273.11C763.439 273.364 760.011 274.422 757.557 276.284C755.145 278.146 753.938 280.622 753.938 283.711V283.838C753.938 287.012 755.123 289.53 757.493 291.392C759.905 293.254 763.1 294.185 767.078 294.185C770.548 294.185 773.659 293.465 776.409 292.026C779.202 290.545 781.403 288.535 783.011 285.996C784.661 283.457 785.486 280.601 785.486 277.427V257.939C785.486 253.919 784.217 250.767 781.678 248.481C779.181 246.154 775.626 244.99 771.014 244.99C766.782 244.99 763.354 245.921 760.73 247.783C758.149 249.603 756.541 251.994 755.906 254.956L755.779 255.527H745.115L745.179 254.829C745.517 251.19 746.744 247.889 748.86 244.927C751.019 241.965 753.981 239.616 757.747 237.881C761.513 236.104 765.978 235.215 771.141 235.215C776.346 235.215 780.831 236.104 784.598 237.881C788.406 239.658 791.347 242.176 793.421 245.435C795.494 248.651 796.531 252.459 796.531 256.86V302.5H785.486V291.772H785.232C783.963 294.185 782.27 296.3 780.154 298.12C778.038 299.897 775.647 301.294 772.981 302.31C770.358 303.283 767.565 303.77 764.603 303.77Z" fill="white"/>
<defs>
<clipPath id="clip0_1148_1740">
<rect width="105" height="123.645" fill="white" transform="translate(382 194.178)"/>
</clipPath>
</defs>
</svg>
