<svg width="512" height="512" viewBox="0 0 512 512" fill="none" xmlns="http://www.w3.org/2000/svg">
<rect width="512" height="512" fill="black"/>
<g clip-path="url(#clip0_1148_1730)">
<path fill-rule="evenodd" clip-rule="evenodd" d="M148.5 129.5H186.5V257.722C205.036 246.244 229.165 240.442 257.5 240.442C284.741 240.442 300.379 233.86 309.447 224.635C318.575 215.348 324.5 199.879 324.5 174.477V129.5H362.5V174.477C362.5 205.045 355.425 232.054 336.553 251.252C317.621 270.513 290.259 278.423 257.5 278.423C230.273 278.423 212.42 284.904 201.793 293.312C191.628 301.355 186.5 312.341 186.5 325.898V382.5H148.5V129.5Z" fill="white"/>
<mask id="mask0_1148_1730" style="mask-type:alpha" maskUnits="userSpaceOnUse" x="194" y="256" width="168" height="127">
<path d="M342 256.848C320.474 278.13 290.485 286.333 256.5 286.333C230.519 286.333 214.742 292.524 206.069 299.387C198.063 305.723 194 314.191 194 325.312V382.5H362V256.641L342 256.848Z" fill="black"/>
</mask>
<g mask="url(#mask0_1148_1730)">
<path opacity="0.6" fill-rule="evenodd" clip-rule="evenodd" d="M262.631 322.786C253.529 314.898 243.477 300.615 243 283.92L281 283.42C281.023 284.216 281.346 288.736 287.525 294.091C292.487 298.391 298.614 302.359 306.304 307.339C308.512 308.769 310.848 310.282 313.323 311.911C332.619 324.609 362 345.211 362 382.5H324C324 367.816 313.381 357.422 292.427 343.633C290.689 342.49 288.846 341.3 286.939 340.068C278.937 334.902 269.814 329.011 262.631 322.786Z" fill="white"/>
</g>
</g>
<defs>
<clipPath id="clip0_1148_1730">
<rect width="214" height="253" fill="white" transform="translate(149 129.5)"/>
</clipPath>
</defs>
</svg>
